<svg width="200" height="200" viewBox="0 0 200 200" fill="none" xmlns="http://www.w3.org/2000/svg">
  <circle cx="100" cy="100" r="90" fill="#4ECDC4"/>
  <path d="M140 80C140 102.091 122.091 120 100 120C77.9086 120 60 102.091 60 80C60 57.9086 77.9086 40 100 40C122.091 40 140 57.9086 140 80Z" fill="white"/>
  <path d="M170 140C170 157.673 138.66 172 100 172C61.3401 172 30 157.673 30 140C30 122.327 61.3401 108 100 108C138.66 108 170 122.327 170 140Z" fill="white"/>
  <rect x="70" y="90" width="60" height="60" rx="5" fill="#4ECDC4"/>
  <path d="M90 120C90 120 95 110 100 110C105 110 110 120 110 120M85 130H115" stroke="white" stroke-width="4" stroke-linecap="round" stroke-linejoin="round"/>
</svg>
